<svg width="171" height="88" viewBox="0 0 171 88" fill="none" xmlns="http://www.w3.org/2000/svg">
<path d="M170 58C170 63.5228 165.523 68 160 68H10C4.47715 68 0 63.5228 0 58V10C0 4.47715 4.47715 0 10 0H160C165.523 0 170 4.47715 170 10V58Z" fill="#333333"/>
<path d="M30.6118 20.6813C29.7307 19.1632 28.451 18.2079 26.487 18.2079C24.6068 18.2079 22.5641 19.6474 22.2441 21.6026C21.4444 26.6752 33.769 24.5603 32.1694 34.6635C31.2096 40.6966 26.7675 44.9708 20.6052 44.9708C16.4411 44.9708 13.7611 42.5733 12.2402 39.0974L16.643 35.3833C17.0835 37.6997 18.8431 39.7779 21.3631 39.7779C23.765 39.7779 25.6059 37.7416 25.9677 35.4252C26.4476 32.3104 23.7257 31.4284 21.4837 30.5097C17.8833 28.9131 15.3214 26.9552 16.0818 22.2832C16.8816 17.2892 21.2451 13.2531 26.327 13.2531C29.0069 13.2531 32.4893 14.5723 34.0102 16.6112L30.6118 20.6813ZM40.6865 24.5577L39.0056 35.1817C38.6464 37.4196 38.5651 40.0946 41.4076 40.0946C44.2475 40.0946 45.0473 37.4196 45.4092 35.1817L47.0874 24.5551H52.6912L50.8503 36.0978C49.9325 41.8116 46.4895 44.8086 40.6471 44.8086C34.8047 44.8086 32.3215 41.8116 33.2419 36.1004L35.0827 24.5577H40.6865ZM67.499 34.3416C67.8976 31.7058 66.6153 28.8712 63.7361 28.8712C60.8516 28.8712 58.6122 31.7058 58.2136 34.3416C57.8124 36.9799 59.0921 39.8538 61.9739 39.8538C64.8558 39.8538 67.0952 36.9799 67.4964 34.3416H67.499ZM60.0518 26.3532C61.5727 24.8351 63.7754 23.919 65.8549 23.919C71.4193 23.919 74.0206 29.1094 73.1788 34.263C72.3397 39.6156 68.2175 44.8086 62.4145 44.8086C60.4137 44.8086 58.4549 43.9291 57.5712 42.3325H57.4925L55.5704 54.6343H49.9693L54.7286 24.5577H60.3298L60.0518 26.3532ZM81.3341 26.594H81.4127C82.813 24.877 84.6145 23.9164 86.6966 23.9164C87.4964 23.9164 88.2961 24.118 88.936 24.398L87.457 29.5883C86.827 29.104 86.0493 28.8508 85.2543 28.8712C81.3734 28.8712 80.4136 32.3052 79.9311 35.3414L78.5309 44.1699H72.9297L76.0502 24.5577H81.654L81.3341 26.594ZM100.621 31.787C100.66 29.7899 99.7003 27.8321 97.5396 27.8321C95.2976 27.8321 93.7373 29.748 93.1368 31.7843L100.621 31.787ZM92.4183 35.2603C92.0565 37.7389 92.5363 40.5343 95.4601 40.5343C97.2983 40.5343 98.6593 39.4167 99.661 37.8567L104.704 38.6943C102.703 42.6099 98.9005 44.8086 94.7784 44.8086C88.6947 44.8086 85.6949 40.4951 86.6153 34.5431C87.575 28.5911 91.456 23.9164 97.8202 23.9164C104.263 23.9164 106.384 28.6696 105.464 34.5824L105.343 35.2629H92.4157L92.4183 35.2603ZM113.425 26.314H113.504C114.147 25.574 114.94 24.9779 115.83 24.5648C116.721 24.1516 117.688 23.9307 118.67 23.9164C121.108 23.9164 122.871 24.9163 123.83 26.9919C125.351 25.0759 127.751 23.9164 130.032 23.9164C135.035 23.9164 135.675 27.6724 134.996 31.9466L133.074 44.1699H127.473L129.112 33.8626C129.392 31.9466 130.113 28.3922 127.352 28.3922C124.31 28.3922 123.67 32.5041 123.35 34.5431L121.83 44.1699H116.226L117.786 34.2238C118.109 32.3052 118.987 28.3922 116.066 28.3922C112.945 28.3922 112.426 32.4649 112.106 34.5431L110.585 44.1699H104.982L108.102 24.5577H113.706L113.425 26.314ZM149.958 31.787C150 29.7899 149.041 27.8321 146.877 27.8321C144.638 27.8321 143.075 29.748 142.477 31.7843L149.958 31.787ZM141.756 35.2603C141.397 37.7389 141.877 40.5343 144.798 40.5343C146.639 40.5343 147.997 39.4167 148.999 37.8567L154.041 38.6943C152.041 42.6099 148.238 44.8086 144.116 44.8086C138.032 44.8086 135.033 40.4951 135.953 34.5431C136.913 28.5911 140.796 23.9164 147.158 23.9164C153.601 23.9164 155.722 28.6696 154.802 34.5824L154.681 35.2629H141.756" fill="white"/>
<path d="M86.7695 82.3887C86.8698 81.7324 86.512 81.2448 85.6963 80.9258L85.1426 80.7207C84.1126 80.3607 83.3812 79.9346 82.9482 79.4424C82.5153 78.9502 82.3193 78.3783 82.3604 77.7266C82.3968 77.1615 82.5882 76.6647 82.9346 76.2363C83.2855 75.8034 83.7458 75.4707 84.3154 75.2383C84.8851 75.0059 85.4912 74.8965 86.1338 74.9102C86.7536 74.9238 87.305 75.0605 87.7881 75.3203C88.2712 75.5755 88.6403 75.9333 88.8955 76.3936C89.1507 76.8493 89.2692 77.3711 89.251 77.959L87.5693 77.9521C87.6012 77.4326 87.485 77.0293 87.2207 76.7422C86.9609 76.4551 86.5667 76.3047 86.0381 76.291C85.5049 76.2819 85.0537 76.4072 84.6846 76.667C84.32 76.9268 84.1058 77.2777 84.042 77.7197C83.9508 78.2985 84.3382 78.7542 85.2041 79.0869L85.7168 79.2715C86.7604 79.6452 87.4896 80.085 87.9043 80.5908C88.319 81.0921 88.5013 81.6868 88.4512 82.375C88.4056 82.9355 88.221 83.4255 87.8975 83.8447C87.5739 84.2594 87.125 84.5807 86.5508 84.8086C85.9811 85.0365 85.3522 85.1458 84.6641 85.1367C84.0124 85.1322 83.4199 84.9954 82.8867 84.7266C82.3581 84.4577 81.9525 84.0863 81.6699 83.6123C81.3874 83.1338 81.2575 82.5915 81.2803 81.9854L82.9688 81.9922C82.9323 82.5573 83.0713 82.9925 83.3857 83.2979C83.7002 83.6032 84.1514 83.7604 84.7393 83.7695C85.2861 83.7786 85.7419 83.6624 86.1064 83.4209C86.4756 83.1794 86.6966 82.8353 86.7695 82.3887ZM92.0537 78.417C92.6689 77.7699 93.3685 77.4554 94.1523 77.4736C94.8542 77.4827 95.3737 77.7311 95.7109 78.2188C96.0527 78.7064 96.1803 79.3809 96.0938 80.2422L95.3008 85H93.6807L94.4873 80.2217C94.5101 80.0257 94.5146 79.8434 94.501 79.6748C94.4417 79.1188 94.1136 78.834 93.5166 78.8203C92.915 78.8112 92.3773 79.1074 91.9033 79.709L90.9805 85H89.3604L91.1787 74.5H92.8057L92.0537 78.417ZM97.3857 81.2744C97.4632 80.5498 97.6751 79.8913 98.0215 79.2988C98.3724 78.7064 98.8213 78.2484 99.3682 77.9248C99.915 77.6012 100.521 77.4486 101.187 77.4668C101.82 77.4759 102.367 77.6445 102.827 77.9727C103.287 78.3008 103.622 78.7497 103.832 79.3193C104.046 79.889 104.121 80.5225 104.058 81.2197C103.985 82.0036 103.771 82.6963 103.415 83.2979C103.064 83.8994 102.613 84.362 102.062 84.6855C101.515 85.0046 100.906 85.1549 100.236 85.1367C99.6074 85.1276 99.0628 84.9613 98.6025 84.6377C98.1468 84.3096 97.8118 83.863 97.5977 83.2979C97.3835 82.7282 97.306 82.1016 97.3652 81.418L97.3857 81.2744ZM98.9785 82.2109C99.0013 82.6895 99.1266 83.0745 99.3545 83.3662C99.5869 83.6533 99.9082 83.8037 100.318 83.8174C100.874 83.8311 101.339 83.6169 101.713 83.1748C102.091 82.7327 102.328 82.1289 102.424 81.3633L102.465 80.6934C102.465 80.11 102.349 79.652 102.116 79.3193C101.884 78.9867 101.547 78.8112 101.104 78.793C100.412 78.7747 99.8649 79.1143 99.4639 79.8115C99.2223 80.2354 99.0697 80.723 99.0059 81.2744C98.9694 81.6572 98.9603 81.9694 98.9785 82.2109ZM111.728 81.3291C111.636 82.0674 111.438 82.7373 111.133 83.3389C110.832 83.9404 110.447 84.3962 109.978 84.7061C109.513 85.0114 108.991 85.1572 108.412 85.1436C107.642 85.1253 107.036 84.8519 106.594 84.3232L105.931 87.8438H104.304L106.081 77.6035L107.564 77.5967L107.441 78.3623C108.007 77.7471 108.679 77.4486 109.458 77.4668C109.927 77.4714 110.335 77.5921 110.682 77.8291C111.028 78.0615 111.292 78.401 111.475 78.8477C111.661 79.2943 111.762 79.791 111.775 80.3379C111.78 80.6159 111.764 80.9463 111.728 81.3291ZM110.128 81.1855L110.162 80.6865C110.176 80.0986 110.078 79.6429 109.868 79.3193C109.663 78.9958 109.353 78.8294 108.938 78.8203C108.328 78.8021 107.799 79.0824 107.353 79.6611L106.778 82.9629C106.983 83.5143 107.4 83.7992 108.029 83.8174C108.567 83.8311 109.018 83.6214 109.383 83.1885C109.752 82.7555 110 82.0879 110.128 81.1855ZM119.438 81.3291C119.347 82.0674 119.149 82.7373 118.844 83.3389C118.543 83.9404 118.158 84.3962 117.688 84.7061C117.224 85.0114 116.702 85.1572 116.123 85.1436C115.353 85.1253 114.747 84.8519 114.305 84.3232L113.642 87.8438H112.015L113.792 77.6035L115.275 77.5967L115.152 78.3623C115.717 77.7471 116.39 77.4486 117.169 77.4668C117.638 77.4714 118.046 77.5921 118.393 77.8291C118.739 78.0615 119.003 78.401 119.186 78.8477C119.372 79.2943 119.473 79.791 119.486 80.3379C119.491 80.6159 119.475 80.9463 119.438 81.3291ZM117.839 81.1855L117.873 80.6865C117.887 80.0986 117.789 79.6429 117.579 79.3193C117.374 78.9958 117.064 78.8294 116.649 78.8203C116.039 78.8021 115.51 79.0824 115.063 79.6611L114.489 82.9629C114.694 83.5143 115.111 83.7992 115.74 83.8174C116.278 83.8311 116.729 83.6214 117.094 83.1885C117.463 82.7555 117.711 82.0879 117.839 81.1855ZM121.947 85H120.327L121.612 77.6035H123.232L121.947 85ZM121.845 75.71C121.845 75.4593 121.927 75.2451 122.091 75.0674C122.255 74.8896 122.476 74.7962 122.754 74.7871C123.018 74.778 123.237 74.86 123.41 75.0332C123.588 75.2018 123.677 75.4092 123.677 75.6553C123.677 75.915 123.59 76.1292 123.417 76.2979C123.248 76.4665 123.032 76.5553 122.768 76.5645C122.508 76.5736 122.289 76.4961 122.111 76.332C121.934 76.1634 121.845 75.9561 121.845 75.71ZM126.548 77.5967L126.384 78.4648C127.017 77.7812 127.749 77.4486 128.578 77.4668C129.271 77.4805 129.784 77.7288 130.116 78.2119C130.449 78.6904 130.572 79.3604 130.485 80.2217L129.686 85H128.065L128.872 80.2012C128.895 80.0052 128.897 79.8229 128.879 79.6543C128.82 79.112 128.496 78.834 127.908 78.8203C127.293 78.8112 126.753 79.1143 126.288 79.7295L125.365 85H123.745L125.023 77.6035L126.548 77.5967ZM131.764 81.2949C131.85 80.5566 132.049 79.889 132.358 79.292C132.673 78.695 133.067 78.2393 133.541 77.9248C134.015 77.6058 134.557 77.4508 135.168 77.46C135.979 77.4782 136.592 77.7767 137.007 78.3555L137.26 77.5967L138.736 77.6035L137.513 84.7949C137.376 85.7611 136.968 86.529 136.289 87.0986C135.615 87.6729 134.792 87.9463 133.821 87.9189C133.302 87.9098 132.81 87.7913 132.345 87.5635C131.88 87.3356 131.506 87.0348 131.224 86.6611L132.085 85.6836C132.518 86.2806 133.083 86.5882 133.78 86.6064C134.309 86.6247 134.762 86.4788 135.141 86.1689C135.523 85.8636 135.779 85.4261 135.906 84.8564L136.022 84.3369C135.453 84.8883 134.806 85.1549 134.081 85.1367C133.388 85.1276 132.832 84.8656 132.413 84.3506C131.998 83.8356 131.771 83.1429 131.729 82.2725C131.716 81.999 131.727 81.6732 131.764 81.2949ZM133.37 81.4385C133.343 81.6709 133.334 81.9215 133.343 82.1904C133.352 82.6735 133.461 83.0563 133.671 83.3389C133.881 83.6214 134.179 83.7695 134.566 83.7832C135.182 83.806 135.719 83.5212 136.18 82.9287L136.761 79.6611C136.524 79.1188 136.102 78.8385 135.496 78.8203C134.949 78.8066 134.489 79.0186 134.115 79.4561C133.742 79.8936 133.498 80.5065 133.384 81.2949L133.37 81.4385ZM150.672 81.7529C150.503 82.792 150.036 83.6214 149.271 84.2412C148.505 84.8564 147.573 85.1549 146.475 85.1367C145.841 85.123 145.285 84.9727 144.807 84.6855C144.333 84.3984 143.961 83.9814 143.692 83.4346C143.424 82.8831 143.273 82.2611 143.241 81.5684C143.214 81.0488 143.278 80.3424 143.433 79.4492C143.588 78.5514 143.884 77.7471 144.321 77.0361C144.763 76.3252 145.303 75.7897 145.941 75.4297C146.584 75.0697 147.297 74.8965 148.081 74.9102C149.07 74.9284 149.852 75.2406 150.426 75.8467C151.005 76.4482 151.312 77.2799 151.349 78.3418H149.674C149.651 77.6309 149.501 77.1182 149.223 76.8037C148.949 76.4847 148.541 76.3184 147.999 76.3047C147.256 76.2819 146.634 76.5485 146.133 77.1045C145.632 77.6605 145.294 78.4694 145.121 79.5312L144.984 80.4404L144.923 81.1377C144.886 81.6071 144.918 82.0492 145.019 82.4639C145.123 82.874 145.306 83.1885 145.565 83.4072C145.825 83.6214 146.156 83.7354 146.557 83.749C147.828 83.7992 148.644 83.1383 149.004 81.7666L150.672 81.7529ZM153.283 85H151.663L153.488 74.5H155.108L153.283 85ZM159.675 84.2686C159.114 84.8656 158.412 85.1549 157.569 85.1367C157.091 85.1276 156.692 85.0091 156.373 84.7812C156.059 84.5534 155.833 84.2367 155.696 83.8311C155.564 83.4209 155.525 82.9401 155.58 82.3887L156.38 77.6035H158L157.193 82.4092C157.175 82.5778 157.173 82.7419 157.187 82.9014C157.232 83.4665 157.517 83.7604 158.041 83.7832C158.757 83.8105 159.335 83.5234 159.777 82.9219L160.707 77.6035H162.327L161.049 85H159.531L159.675 84.2686ZM169.655 81.3359C169.564 82.0879 169.361 82.7692 169.047 83.3799C168.737 83.986 168.35 84.4349 167.885 84.7266C167.424 85.0182 166.905 85.1572 166.326 85.1436C165.501 85.1253 164.879 84.8086 164.46 84.1934L164.2 85H162.717L164.535 74.5H166.162L165.424 78.3213C165.975 77.7334 166.629 77.4486 167.386 77.4668C168.101 77.485 168.66 77.7471 169.061 78.2529C169.466 78.7588 169.68 79.4515 169.703 80.3311C169.708 80.6045 169.692 80.9395 169.655 81.3359ZM168.097 80.4199C168.097 79.9232 167.994 79.5358 167.789 79.2578C167.584 78.9753 167.288 78.8294 166.9 78.8203C166.249 78.8021 165.697 79.1165 165.246 79.7637L164.713 82.8262C164.913 83.446 165.344 83.7673 166.005 83.79C166.552 83.8037 167.001 83.5941 167.352 83.1611C167.707 82.7282 167.935 82.1175 168.035 81.3291C168.072 80.9417 168.092 80.6387 168.097 80.4199Z" fill="black"/>
</svg>
