<svg width="512" height="512" viewBox="0 0 512 512" fill="none" xmlns="http://www.w3.org/2000/svg">
<path d="M497.93 97.1484C488.437 86.3047 474.906 80.332 459.832 80.332H95.4023L91.7344 52.832C87.7812 23.207 67.1562 0 44.7773 0H18C9.71484 0 3 6.71484 3 15C3 23.2852 9.71484 30 18 30H44.7773C49.5898 30 59.7812 40.1758 61.9961 56.7969L104.934 378.836C106.824 393.031 114.117 406.32 125.469 416.258C133.887 423.629 143.836 428.531 154.258 430.582C150.012 438.391 147.598 447.336 147.598 456.832C147.598 487.254 172.348 512 202.766 512C233.184 512 257.934 487.254 257.934 456.832C257.934 447.77 255.723 439.219 251.832 431.668H330.434C326.543 439.219 324.332 447.77 324.332 456.832C324.332 487.254 349.082 512 379.5 512C409.918 512 434.668 487.254 434.668 456.832C434.668 447.77 432.457 439.219 428.566 431.668H467.867C476.148 431.668 482.867 424.949 482.867 416.668C482.867 408.383 476.148 401.668 467.867 401.668H165.277C150.621 401.668 136.605 389.395 134.668 374.867L131.531 351.332H248.277C248.281 351.332 248.285 351.336 248.289 351.336C248.293 351.336 248.297 351.332 248.305 351.332H344.672C344.676 351.332 344.68 351.336 344.688 351.336C344.691 351.336 344.691 351.332 344.695 351.332H427.699C442.02 351.332 456.156 345.859 467.508 335.926C478.859 325.988 486.152 312.695 488.043 298.5L509.559 137.133C511.551 122.191 507.422 107.992 497.93 97.1484V97.1484ZM227.934 456.832C227.934 470.711 216.645 482 202.766 482C188.891 482 177.598 470.711 177.598 456.832C177.598 442.957 188.891 431.668 202.766 431.668C216.645 431.668 227.934 442.957 227.934 456.832V456.832ZM404.668 456.832C404.668 470.711 393.379 482 379.5 482C365.621 482 354.332 470.711 354.332 456.832C354.332 442.957 365.621 431.668 379.5 431.668C393.379 431.668 404.668 442.957 404.668 456.832V456.832ZM475.355 116.91C479.07 121.152 480.656 126.922 479.82 133.164L470.801 200.832H368.738L374.77 110.332H459.832C466.133 110.332 471.645 112.668 475.355 116.91V116.91ZM262.336 321.332L256.301 230.832H336.672L330.637 321.332H262.336ZM254.301 200.832L248.27 110.332H344.703L338.672 200.832H254.301ZM218.203 110.332L224.234 200.832H111.465L99.3984 110.332H218.203ZM115.465 230.832H226.234L232.27 321.332H127.531L115.465 230.832ZM427.699 321.332H360.703L366.738 230.832H466.801L458.309 294.535C456.371 309.062 442.352 321.332 427.699 321.332Z" fill="#9F9F9F"/>
</svg>
