<svg width="491" height="491" viewBox="0 0 491 491" fill="none" xmlns="http://www.w3.org/2000/svg">
<g clip-path="url(#clip0)">
<path d="M245.333 0C110.059 0 0 110.059 0 245.333C0 380.607 110.059 490.666 245.333 490.666C380.607 490.666 490.666 380.607 490.666 245.333C490.666 110.059 380.608 0 245.333 0ZM245.333 469.333C121.813 469.333 21.333 368.853 21.333 245.333C21.333 121.813 121.813 21.333 245.333 21.333C368.853 21.333 469.333 121.813 469.333 245.333C469.333 368.853 368.853 469.333 245.333 469.333Z" fill="#9F9F9F"/>
<path d="M245.333 234.667C168.874 234.667 106.666 296.875 106.666 373.334C106.666 379.222 111.445 384.001 117.333 384.001C123.221 384.001 128 379.221 128 373.333C128 308.629 180.629 256 245.333 256C310.037 256 362.666 308.629 362.666 373.333C362.666 379.221 367.445 384 373.333 384C379.221 384 384 379.221 384 373.333C384 296.875 321.792 234.667 245.333 234.667Z" fill="#9F9F9F"/>
<path d="M245.333 64C204.16 64 170.666 97.493 170.666 138.667C170.666 179.841 204.159 213.334 245.333 213.334C286.507 213.334 320 179.84 320 138.667C320 97.494 286.507 64 245.333 64ZM245.333 192C215.936 192 192 168.064 192 138.667C192 109.27 215.936 85.334 245.333 85.334C274.73 85.334 298.666 109.27 298.666 138.667C298.666 168.064 274.731 192 245.333 192Z" fill="#9F9F9F"/>
</g>
<defs>
<clipPath id="clip0">
<rect width="490.667" height="490.667" fill="white"/>
</clipPath>
</defs>
</svg>
